<?xml version="1.0" encoding="iso-8859-1"?>
<!-- Generator: Adobe Illustrator 19.0.0, SVG Export Plug-In . SVG Version: 6.00 Build 0)  -->
<svg version="1.1" id="Capa_1" xmlns="http://www.w3.org/2000/svg" xmlns:xlink="http://www.w3.org/1999/xlink" x="0px" y="0px"
	 viewBox="0 0 512 512" style="enable-background:new 0 0 512 512;" xml:space="preserve">
<g>
	<g>
		<g>
			<path d="M406,0H106c-5.523,0-10,4.477-10,10c0,0,0.005,60.064,0.005,60.096c0.001,0.132,60.298,240.348,60.298,240.348
				c1.12,4.442,5.115,7.556,9.697,7.556h37v20h-22c-5.523,0-10,4.477-10,10c0,49.626,38.131,90,85,90s85-40.374,85-90
				c0-5.523-4.477-10-10-10h-22v-20h37c4.582,0,8.577-3.113,9.697-7.556c0,0,60.303-240.412,60.303-240.444V10
				C416,4.477,411.523,0,406,0z M320.339,358c-3.024,22.667-16.178,41.848-34.339,52.07V396c0-5.523-4.477-10-10-10s-10,4.477-10,10
				v21.156c-3.262,0.545-6.598,0.844-10,0.844c-3.75,0-7.422-0.359-11-1.019V396c0-5.523-4.477-10-10-10s-10,4.477-10,10v13.512
				c-17.646-10.355-30.37-29.26-33.339-51.512H320.339z M223,338v-20h66v20H223z M348.292,258H294c-5.51,0-10,4.49-10,10
				s4.49,10,10,10h49.25l-5.042,20H173.792L118.834,80h274.332L348.292,258z M396,60H116V20h280V60z"/>
			<path d="M228.961,217.849c7.253,4.16,15.945,6.24,26.08,6.24c11.412,0,20.612-2.97,27.6-8.915
				c6.985-5.942,10.48-14.385,10.48-25.325c0-10.645-4.237-21.993-13.361-28.16c-3.788-2.56-20.854-11.12-24.639-12.56
				c-5.876-2.234-13.361-6.496-13.36-13.681c0.001-9.613,10.223-12.319,18.08-12.319c4.169,0,8.369,0.656,12.259,2.186
				c3.167,1.245,6.302,3.893,9.821,3.895c8.479-0.001,10.462-13.128,5.041-17.748c-4.889-4.167-12.16-5.236-18.32-5.997
				c-7.541-0.932-15.337-0.79-22.72,1.13c-8.768,2.28-17.216,7.367-21.52,15.591c-2.295,4.385-3.44,9.447-3.44,15.185
				c0,14.192,8.177,23.467,20.24,29.76c3.68,1.92,17.92,8.348,20.96,10c5.513,3.001,10.16,8.212,10.16,14.8
				c0,9.796-9.407,13.92-17.92,13.92c-3.735,0-7.147-0.665-10.24-1.995c-4.896-2.104-8.073-5.661-12.24-8.81
				c-3.957-2.991-8.173-2.085-11.04,1.766c-1.867,2.507-2.799,4.987-2.799,7.439C218.081,209.156,221.706,213.688,228.961,217.849z"
				/>
			<path d="M254,258c-5.51,0-10,4.49-10,10s4.49,10,10,10s10-4.49,10-10S259.51,258,254,258z"/>
			<circle cx="196" cy="502" r="10"/>
			<circle cx="236" cy="502" r="10"/>
			<circle cx="276" cy="502" r="10"/>
			<circle cx="316" cy="502" r="10"/>
			<circle cx="216" cy="472" r="10"/>
			<circle cx="256" cy="472" r="10"/>
			<circle cx="296" cy="472" r="10"/>
		</g>
	</g>
</g>
<g>
</g>
<g>
</g>
<g>
</g>
<g>
</g>
<g>
</g>
<g>
</g>
<g>
</g>
<g>
</g>
<g>
</g>
<g>
</g>
<g>
</g>
<g>
</g>
<g>
</g>
<g>
</g>
<g>
</g>
</svg>
